<svg xmlns="http://www.w3.org/2000/svg" width="19.906" height="23"><path data-name="Forma 1" d="M1.453 7.49h-.061A1.38 1.38 0 0 0 .001 8.86v5.97a1.386 1.386 0 0 0 1.391 1.37h.061a1.386 1.386 0 0 0 1.391-1.37V8.86a1.381 1.381 0 0 0-1.391-1.37zm2.058 9.64a1.268 1.268 0 0 0 1.279 1.26h1.367v3.23a1.388 1.388 0 0 0 1.392 1.37h.059a1.388 1.388 0 0 0 1.394-1.37v-3.23h1.911v3.23a1.39 1.39 0 0 0 1.394 1.37h.058a1.387 1.387 0 0 0 1.393-1.37v-3.23h1.368a1.268 1.268 0 0 0 1.278-1.26V7.71H3.511v9.42zm9.657-15.14L14.254.34a.231.231 0 1 0-.388-.25L12.741 1.8a7.577 7.577 0 0 0-5.568 0L6.05.09a.231.231 0 1 0-.389.25l1.087 1.65a5.409 5.409 0 0 0-3.28 4.77c0 .13.008.25.018.37H16.43c.01-.12.017-.24.017-.37a5.408 5.408 0 0 0-3.279-4.77zM6.957 4.94a.61.61 0 1 1 .623-.61.615.615 0 0 1-.623.61zm6 0a.61.61 0 1 1 .622-.61.615.615 0 0 1-.621.61zm5.564 2.55h-.058a1.383 1.383 0 0 0-1.4 1.37v5.97a1.389 1.389 0 0 0 1.4 1.37h.058a1.387 1.387 0 0 0 1.392-1.37V8.86a1.381 1.381 0 0 0-1.391-1.37z" fill="#fff" fill-rule="evenodd"/></svg>