<svg id="apple" xmlns="http://www.w3.org/2000/svg" width="20.094" height="25"><path data-name="Forma 1" d="M16.786 13.28a5.681 5.681 0 0 1 2.664-4.76 5.759 5.759 0 0 0-4.513-2.48c-1.922-.19-3.75 1.15-4.726 1.15S7.733 6.07 6.139 6.1a6.032 6.032 0 0 0-5.105 3.14c-2.177 3.82-.557 9.49 1.564 12.59 1.037 1.52 2.273 3.23 3.9 3.17 1.562-.07 2.153-1.03 4.043-1.03s2.42 1.03 4.074.99c1.682-.03 2.748-1.54 3.777-3.07a13.837 13.837 0 0 0 1.71-3.55 5.523 5.523 0 0 1-3.316-5.06zm-3.108-9.29A5.56 5.56 0 0 0 14.962 0a5.483 5.483 0 0 0-3.635 1.89 5.282 5.282 0 0 0-1.31 3.87 4.543 4.543 0 0 0 3.661-1.77z" fill="#fff" fill-rule="evenodd"/></svg>