<svg id="arrow" xmlns="http://www.w3.org/2000/svg" viewBox="0 0 474.64 474.64"><path d="M237.32.016C106.249.016 0 106.233 0 237.336s106.281 237.288 237.32 237.288 237.32-106.249 237.32-237.32S368.391.016 237.32.016zm0 442.825c-113.336 0-205.537-92.169-205.537-205.569s92.2-205.537 205.537-205.537 205.537 92.233 205.537 205.537-92.169 205.569-205.537 205.569z"/><path d="M247.554 161.534c-3.115-3.115-7.183-4.608-11.283-4.608s-8.168 1.494-11.283 4.608l-103.07 103.071c-6.198 6.198-6.198 16.273 0 22.47 6.198 6.198 16.273 6.198 22.47 0l91.883-91.883 91.883 91.883c6.198 6.198 16.273 6.198 22.47 0 6.198-6.198 6.198-16.273 0-22.47l-103.07-103.071z"/></svg>