<svg id="bubble" xmlns="http://www.w3.org/2000/svg" width="29" height="27"><path data-name="19-communication - chat talk bubble more dots" d="M19.94 21.59h-7.03l-7.47 5.4v-6.16A8.99 8.99 0 0 1 0 12.59v-3.6a9.033 9.033 0 0 1 9.06-9h10.88a9.033 9.033 0 0 1 9.06 9v3.6a9.033 9.033 0 0 1-9.06 9zm7.25-12.6a7.225 7.225 0 0 0-7.25-7.2H9.06a7.225 7.225 0 0 0-7.25 7.2v3.6a7.189 7.189 0 0 0 5.44 6.94v3.86l5.08-3.6h7.61a7.232 7.232 0 0 0 7.25-7.2v-3.6zm-5.44 3.6a1.8 1.8 0 1 1 1.81-1.8 1.807 1.807 0 0 1-1.81 1.8zm-7.25 0a1.8 1.8 0 1 1 1.81-1.8 1.807 1.807 0 0 1-1.81 1.8zm-7.25 0a1.8 1.8 0 1 1 1.81-1.8 1.807 1.807 0 0 1-1.81 1.8z" fill="#000" fill-rule="evenodd"/></svg>