<svg id="crown" xmlns="http://www.w3.org/2000/svg" width="58" height="58"><path data-name="20-misc - crown premium" d="M.5 57.5V16.78L14.75 29l9.587-13.7a8.143 8.143 0 1 1 9.327 0L43.25 29 57.5 16.78V57.5H.5zM29 4.57a4.07 4.07 0 1 0 4.072 4.07A4.069 4.069 0 0 0 29 4.57zm24.429 21.06l-7.528 6.46-3.41 2.92-2.576-3.68-10.233-14.62c-.229.02-.448.07-.682.07s-.453-.05-.681-.07L18.086 31.33l-2.575 3.68-3.411-2.92-7.528-6.46v19.65h48.857V25.63zm0 23.72H4.571v4.07h48.857v-4.07z" fill="#ffee6b" stroke="#fff" stroke-linejoin="round" fill-rule="evenodd"/></svg>