<svg xmlns="http://www.w3.org/2000/svg" width="62" height="62"><path data-name="4-setting - gear" d="M61.5 30.99a7.589 7.589 0 0 1-7.019 7.56 24.277 24.277 0 0 1-1.557 3.76 7.518 7.518 0 0 1-10.6 10.61 24.543 24.543 0 0 1-3.759 1.55 7.585 7.585 0 0 1-15.128 0 24.543 24.543 0 0 1-3.759-1.55 7.518 7.518 0 0 1-10.6-10.61 24.277 24.277 0 0 1-1.557-3.76 7.581 7.581 0 0 1 0-15.12 24.372 24.372 0 0 1 1.556-3.76 7.514 7.514 0 0 1 10.6-10.6 23.667 23.667 0 0 1 3.76-1.56 7.585 7.585 0 0 1 15.128 0 23.618 23.618 0 0 1 3.759 1.56 7.514 7.514 0 0 1 10.6 10.6 24.372 24.372 0 0 1 1.556 3.76 7.6 7.6 0 0 1 7.02 7.56zm-9.883-3.81a20.684 20.684 0 0 0-3.38-8.03l1.634-1.64a3.812 3.812 0 0 0-5.392-5.39l-1.645 1.65a20.821 20.821 0 0 0-8.022-3.36V8.12a3.813 3.813 0 0 0-7.625 0v2.29a20.816 20.816 0 0 0-8.021 3.36l-1.645-1.65a3.812 3.812 0 0 0-5.392 5.39l1.634 1.64a20.686 20.686 0 0 0-3.381 8.03H8.125a3.815 3.815 0 0 0 0 7.63h2.257a20.816 20.816 0 0 0 3.382 8.03l-1.635 1.63a3.812 3.812 0 0 0 5.392 5.39l1.644-1.64a20.975 20.975 0 0 0 8.022 3.36v2.29a3.813 3.813 0 0 0 7.625 0v-2.29a20.969 20.969 0 0 0 8.022-3.36l1.645 1.64a3.812 3.812 0 1 0 5.392-5.39l-1.635-1.63a20.814 20.814 0 0 0 3.381-8.03h2.258a3.815 3.815 0 0 0 0-7.63h-2.258zM31 42.43a11.44 11.44 0 1 1 11.438-11.44A11.437 11.437 0 0 1 31 42.43zm0-19.06a7.625 7.625 0 1 0 7.625 7.62A7.622 7.622 0 0 0 31 23.37z" fill="#c377e0" stroke="#f0f3f2" stroke-linejoin="round" fill-rule="evenodd"/></svg>