<svg xmlns="http://www.w3.org/2000/svg" width="20" height="20"><path d="M17.63 0H2.38A2.341 2.341 0 0 0 0 2.4v15.2A2.4 2.4 0 0 0 2.38 20h15.25a2.409 2.409 0 0 0 2.38-2.4V2.4A2.346 2.346 0 0 0 17.63 0zm-3.25 3.1a.635.635 0 0 1 .63-.6h1.87a.635.635 0 0 1 .63.6V5a.635.635 0 0 1-.63.6h-1.87a.635.635 0 0 1-.63-.6V3.1zm-4.35 3.1a3.82 3.82 0 0 1 3.84 3.8 3.845 3.845 0 1 1-7.69 0 3.822 3.822 0 0 1 3.85-3.8zm8.1 11.3a.633.633 0 0 1-.62.6H2.5a.633.633 0 0 1-.62-.6V8.1h2.5a4 4 0 0 0-.44 1.9 6.085 6.085 0 1 0 12.17 0 3.369 3.369 0 0 0-.48-1.9h2.5v9.4z" fill="#fff" fill-rule="evenodd"/></svg>