<svg id="iphone" xmlns="http://www.w3.org/2000/svg" width="39" height="80"><defs><linearGradient id="a" x1="64.279%" x2="0%" y1="76.604%" y2="0%"><stop offset="0%" stop-color="#1AD2FD"/><stop offset="100%" stop-color="#008AFF"/></linearGradient></defs><path fill-rule="evenodd" d="M37.369 78.065c-.762.885-2.189 1.94-4.666 1.94H7.367c-2.476 0-3.904-1.055-4.666-1.94-.872-1.014-1.372-2.384-1.372-3.761V30.479h-.15c-.199 0-.441-.191-.441-.428v-5.119c0-.219.208-.425.429-.425h.162v-1.363h-.166c-.215 0-.425-.215-.425-.434v-5.08c0-.216.221-.436.438-.436h.153v-1.649h-.161c-.237 0-.43-.178-.43-.398v-3.29c0-.22.193-.399.43-.399h.161V6.385c0-1.378.5-2.749 1.372-3.761.762-.885 2.19-1.941 4.666-1.941h18.74v-.21c0-.248.23-.482.473-.482h5.629c.245 0 .477.232.477.48v.212h.017c2.477 0 3.904 1.056 4.666 1.941.872 1.012 1.372 2.383 1.372 3.761v67.919c0 1.377-.5 2.747-1.372 3.761zM1.329 11.757h-.161c-.06 0-.108.044-.108.1v3.29c0 .055.048.099.108.099h.161v-3.489zm0 5.735h-.153c-.055 0-.143.084-.143.138v5.08c0 .054.075.136.13.136h.166v-5.354zm0 7.311h-.162c-.055 0-.134.074-.134.129v5.119c0 .055.092.13.146.13h.15v-5.378zM32.391.471c0-.084-.101-.184-.182-.184H26.58c-.081 0-.178.103-.178.186v.21H32.391V.471zm5.956 72.094V6.385c0-1.283-.465-2.561-1.275-3.502-.708-.823-2.041-1.803-4.369-1.803H7.367c-2.328 0-3.66.98-4.368 1.803-.811.941-1.276 2.219-1.276 3.502v67.919c0 1.283.465 2.559 1.276 3.501.708.822 2.04 1.803 4.368 1.803h25.336c2.328 0 3.661-.981 4.369-1.803.81-.942 1.275-2.218 1.275-3.501v-1.739zm-1.709 4.768a4.302 4.302 0 0 1-1.535 1.129c-.68.299-1.471.452-2.35.452H7.416c-.879 0-1.67-.153-2.35-.452a4.302 4.302 0 0 1-1.535-1.129c-.711-.827-1.119-1.95-1.119-3.081V6.337c0-1.131.408-2.253 1.119-3.079a4.279 4.279 0 0 1 1.535-1.129c.68-.301 1.471-.452 2.35-.452H32.753c.879 0 1.67.151 2.35.452a4.279 4.279 0 0 1 1.535 1.129c.711.826 1.119 1.948 1.119 3.079V74.252c0 1.131-.408 2.254-1.119 3.081zm.725-4.818V6.337c0-1.036-.373-2.064-1.023-2.819a3.895 3.895 0 0 0-1.395-1.026c-.63-.277-1.368-.418-2.192-.418H7.416c-.824 0-1.562.141-2.192.418a3.895 3.895 0 0 0-1.395 1.026c-.65.755-1.023 1.783-1.023 2.819V74.252c0 1.037.373 2.066 1.023 2.821.379.439.848.785 1.395 1.026.63.277 1.368.418 2.192.418H32.753c.824 0 1.562-.141 2.192-.418a3.907 3.907 0 0 0 1.395-1.026c.65-.755 1.023-1.784 1.023-2.821v-1.737zm-1.575-3.616H4.283a.395.395 0 0 1-.394-.397V12.187c0-.22.176-.396.394-.396h31.505c.217 0 .393.176.393.396v56.315a.395.395 0 0 1-.393.397zm0-56.712H4.283v56.315h31.505V12.187zm-13.07-3.669h-5.366c-.421 0-.763-.356-.763-.794 0-.438.342-.793.763-.793h5.366c.422 0 .763.355.763.793 0 .438-.341.794-.763.794zm0-1.178h-5.366a.377.377 0 0 0-.369.384c0 .212.166.385.369.385h5.366a.378.378 0 0 0 .369-.385.377.377 0 0 0-.369-.384zm-2.683-1.773a.841.841 0 0 1-.837-.843c0-.464.376-.842.837-.842a.84.84 0 0 1 .837.842.84.84 0 0 1-.837.843zm0-1.389a.544.544 0 0 0-.541.546c0 .301.243.545.541.545a.545.545 0 1 0 0-1.091zm0 .861a.296.296 0 0 1-.295-.298.296.296 0 1 1 .591 0 .297.297 0 0 1-.296.298zm0 65.61c1.903 0 3.446 1.553 3.446 3.47 0 1.917-1.543 3.471-3.446 3.471-1.903 0-3.446-1.554-3.446-3.471s1.543-3.47 3.446-3.47zm0 6.544c1.683 0 3.052-1.379 3.052-3.074 0-1.695-1.369-3.073-3.052-3.073s-3.052 1.378-3.052 3.073 1.369 3.074 3.052 3.074zm-.64-4.426h1.379c.353 0 .64.287.64.644v1.387a.642.642 0 0 1-.64.643h-1.379a.642.642 0 0 1-.64-.643v-1.387c0-.357.287-.644.64-.644zm-.246 2.031c0 .137.111.246.246.246h1.379a.246.246 0 0 0 .246-.246v-1.387a.248.248 0 0 0-.246-.248h-1.379a.248.248 0 0 0-.246.248v1.387z"/><path fill="url(#a)" d="M37.369 78.065c-.762.885-2.189 1.94-4.666 1.94H7.367c-2.476 0-3.904-1.055-4.666-1.94-.872-1.014-1.372-2.384-1.372-3.761V30.479h-.15c-.199 0-.441-.191-.441-.428v-5.119c0-.219.208-.425.429-.425h.162v-1.363h-.166c-.215 0-.425-.215-.425-.434v-5.08c0-.216.221-.436.438-.436h.153v-1.649h-.161c-.237 0-.43-.178-.43-.398v-3.29c0-.22.193-.399.43-.399h.161V6.385c0-1.378.5-2.749 1.372-3.761.762-.885 2.19-1.941 4.666-1.941h18.74v-.21c0-.248.23-.482.473-.482h5.629c.245 0 .477.232.477.48v.212h.017c2.477 0 3.904 1.056 4.666 1.941.872 1.012 1.372 2.383 1.372 3.761v67.919c0 1.377-.5 2.747-1.372 3.761zM1.329 11.757h-.161c-.06 0-.108.044-.108.1v3.29c0 .055.048.099.108.099h.161v-3.489zm0 5.735h-.153c-.055 0-.143.084-.143.138v5.08c0 .054.075.136.13.136h.166v-5.354zm0 7.311h-.162c-.055 0-.134.074-.134.129v5.119c0 .055.092.13.146.13h.15v-5.378zM32.391.471c0-.084-.101-.184-.182-.184H26.58c-.081 0-.178.103-.178.186v.21H32.391V.471zm5.956 72.094V6.385c0-1.283-.465-2.561-1.275-3.502-.708-.823-2.041-1.803-4.369-1.803H7.367c-2.328 0-3.66.98-4.368 1.803-.811.941-1.276 2.219-1.276 3.502v67.919c0 1.283.465 2.559 1.276 3.501.708.822 2.04 1.803 4.368 1.803h25.336c2.328 0 3.661-.981 4.369-1.803.81-.942 1.275-2.218 1.275-3.501v-1.739zm-1.709 4.768a4.302 4.302 0 0 1-1.535 1.129c-.68.299-1.471.452-2.35.452H7.416c-.879 0-1.67-.153-2.35-.452a4.302 4.302 0 0 1-1.535-1.129c-.711-.827-1.119-1.95-1.119-3.081V6.337c0-1.131.408-2.253 1.119-3.079a4.279 4.279 0 0 1 1.535-1.129c.68-.301 1.471-.452 2.35-.452H32.753c.879 0 1.67.151 2.35.452a4.279 4.279 0 0 1 1.535 1.129c.711.826 1.119 1.948 1.119 3.079V74.252c0 1.131-.408 2.254-1.119 3.081zm.725-4.818V6.337c0-1.036-.373-2.064-1.023-2.819a3.895 3.895 0 0 0-1.395-1.026c-.63-.277-1.368-.418-2.192-.418H7.416c-.824 0-1.562.141-2.192.418a3.895 3.895 0 0 0-1.395 1.026c-.65.755-1.023 1.783-1.023 2.819V74.252c0 1.037.373 2.066 1.023 2.821.379.439.848.785 1.395 1.026.63.277 1.368.418 2.192.418H32.753c.824 0 1.562-.141 2.192-.418a3.907 3.907 0 0 0 1.395-1.026c.65-.755 1.023-1.784 1.023-2.821v-1.737zm-1.575-3.616H4.283a.395.395 0 0 1-.394-.397V12.187c0-.22.176-.396.394-.396h31.505c.217 0 .393.176.393.396v56.315a.395.395 0 0 1-.393.397zm0-56.712H4.283v56.315h31.505V12.187zm-13.07-3.669h-5.366c-.421 0-.763-.356-.763-.794 0-.438.342-.793.763-.793h5.366c.422 0 .763.355.763.793 0 .438-.341.794-.763.794zm0-1.178h-5.366a.377.377 0 0 0-.369.384c0 .212.166.385.369.385h5.366a.378.378 0 0 0 .369-.385.377.377 0 0 0-.369-.384zm-2.683-1.773a.841.841 0 0 1-.837-.843c0-.464.376-.842.837-.842a.84.84 0 0 1 .837.842.84.84 0 0 1-.837.843zm0-1.389a.544.544 0 0 0-.541.546c0 .301.243.545.541.545a.545.545 0 1 0 0-1.091zm0 .861a.296.296 0 0 1-.295-.298.296.296 0 1 1 .591 0 .297.297 0 0 1-.296.298zm0 65.61c1.903 0 3.446 1.553 3.446 3.47 0 1.917-1.543 3.471-3.446 3.471-1.903 0-3.446-1.554-3.446-3.471s1.543-3.47 3.446-3.47zm0 6.544c1.683 0 3.052-1.379 3.052-3.074 0-1.695-1.369-3.073-3.052-3.073s-3.052 1.378-3.052 3.073 1.369 3.074 3.052 3.074zm-.64-4.426h1.379c.353 0 .64.287.64.644v1.387a.642.642 0 0 1-.64.643h-1.379a.642.642 0 0 1-.64-.643v-1.387c0-.357.287-.644.64-.644zm-.246 2.031c0 .137.111.246.246.246h1.379a.246.246 0 0 0 .246-.246v-1.387a.248.248 0 0 0-.246-.248h-1.379a.248.248 0 0 0-.246.248v1.387z"/></svg>