<svg id="mouse" xmlns="http://www.w3.org/2000/svg" width="28.125" height="42.91"><path data-name="Forma 1" d="M15.475 0h-3.3A12.273 12.273 0 0 0 .002 12.623V30.3a12.275 12.275 0 0 0 12.173 12.62h3.3A12.655 12.655 0 0 0 28.138 30.3V12.622A12.658 12.658 0 0 0 15.475 0zM13.94 6.615h.256a.725.725 0 0 1 .724.722v5.142a.723.723 0 0 1-.724.721h-.256a.723.723 0 0 1-.724-.721V7.337a.725.725 0 0 1 .72-.723zM26.475 30.3a11 11 0 0 1-11.006 10.97h-3.3A10.636 10.636 0 0 1 1.653 30.3V12.622A10.636 10.636 0 0 1 12.169 1.65h1.059v3.422a2.376 2.376 0 0 0-1.67 2.264v5.142a2.379 2.379 0 0 0 1.67 2.265v4.246a.828.828 0 0 0 1.656 0v-4.24a2.378 2.378 0 0 0 1.69-2.271V7.336a2.378 2.378 0 0 0-1.69-2.271V1.65h.591a11 11 0 0 1 11 10.972V30.3z" fill-rule="evenodd"/></svg>