<svg id="pad" xmlns="http://www.w3.org/2000/svg" width="71" height="103"><defs><linearGradient id="a" x1="64.279%" x2="0%" y1="76.604%" y2="0%"><stop offset="0%" stop-color="#1AD2FD"/><stop offset="100%" stop-color="#008AFF"/></linearGradient></defs><path fill-rule="evenodd" d="M64.748 102.994H5.347c-3.006 0-5.273-2.258-5.273-5.253V5.25c0-2.995 2.267-5.253 5.273-5.253h59.401c3.007 0 5.273 2.258 5.273 5.253v92.491c0 2.995-2.266 5.253-5.273 5.253zM69.627 5.25c0-2.77-2.098-4.859-4.879-4.859H5.347C2.566.391.469 2.48.469 5.25v92.491c0 2.771 2.097 4.86 4.878 4.86h59.401c2.781 0 4.879-2.089 4.879-4.86V5.25zm-1.755 95.712c-.81.802-1.929 1.244-3.151 1.244H5.375c-1.223 0-2.342-.442-3.151-1.244-.812-.805-1.26-1.924-1.26-3.149V5.277c0-1.226.448-2.345 1.26-3.15C3.033 1.325 4.152.883 5.375.883H64.721c1.222 0 2.341.442 3.151 1.244.812.805 1.259 1.924 1.259 3.15v92.536c0 1.225-.447 2.344-1.259 3.149zm.864-95.685c0-1.121-.406-2.141-1.143-2.871-.735-.727-1.755-1.128-2.872-1.128H5.375c-1.117 0-2.137.401-2.872 1.128-.737.73-1.143 1.75-1.143 2.871v92.536c0 1.119.406 2.139 1.143 2.87.735.728 1.755 1.128 2.872 1.128H64.721c1.117 0 2.137-.4 2.872-1.128.737-.731 1.143-1.751 1.143-2.87V5.277zM65.87 92.764H4.424a.493.493 0 0 1-.494-.492V10.623c0-.271.221-.492.494-.492H65.87c.273 0 .494.221.494.492v81.649a.493.493 0 0 1-.494.492zm0-82.141H4.424v81.649H65.87V10.623zM35.049 6.391a.69.69 0 1 1 0-1.377.69.69 0 0 1 .691.689.69.69 0 0 1-.691.688zm0-1.082a.394.394 0 1 0-.001.789.394.394 0 0 0 .001-.789zm.014 90.025a2.545 2.545 0 0 1 2.55 2.541 2.546 2.546 0 0 1-2.55 2.54 2.546 2.546 0 0 1-2.55-2.54 2.545 2.545 0 0 1 2.55-2.541zm0 4.688a2.154 2.154 0 0 0 2.155-2.147 2.153 2.153 0 0 0-2.155-2.147 2.153 2.153 0 0 0-2.156 2.147c0 1.183.967 2.147 2.156 2.147zm-.596-3.129h1.164c.224 0 .406.18.406.403v1.16a.405.405 0 0 1-.406.405h-1.164a.405.405 0 0 1-.405-.405v-1.16c0-.223.181-.403.405-.403zm-.006 1.563c0 .004.003.006.006.006h1.164c.004 0 .006-.002.006-.006v-1.16c0-.003-.002-.006-.006-.006h-1.164a.006.006 0 0 0-.006.006v1.16z"/><path fill="url(#a)" d="M64.748 102.994H5.347c-3.006 0-5.273-2.258-5.273-5.253V5.25c0-2.995 2.267-5.253 5.273-5.253h59.401c3.007 0 5.273 2.258 5.273 5.253v92.491c0 2.995-2.266 5.253-5.273 5.253zM69.627 5.25c0-2.77-2.098-4.859-4.879-4.859H5.347C2.566.391.469 2.48.469 5.25v92.491c0 2.771 2.097 4.86 4.878 4.86h59.401c2.781 0 4.879-2.089 4.879-4.86V5.25zm-1.755 95.712c-.81.802-1.929 1.244-3.151 1.244H5.375c-1.223 0-2.342-.442-3.151-1.244-.812-.805-1.26-1.924-1.26-3.149V5.277c0-1.226.448-2.345 1.26-3.15C3.033 1.325 4.152.883 5.375.883H64.721c1.222 0 2.341.442 3.151 1.244.812.805 1.259 1.924 1.259 3.15v92.536c0 1.225-.447 2.344-1.259 3.149zm.864-95.685c0-1.121-.406-2.141-1.143-2.871-.735-.727-1.755-1.128-2.872-1.128H5.375c-1.117 0-2.137.401-2.872 1.128-.737.73-1.143 1.75-1.143 2.871v92.536c0 1.119.406 2.139 1.143 2.87.735.728 1.755 1.128 2.872 1.128H64.721c1.117 0 2.137-.4 2.872-1.128.737-.731 1.143-1.751 1.143-2.87V5.277zM65.87 92.764H4.424a.493.493 0 0 1-.494-.492V10.623c0-.271.221-.492.494-.492H65.87c.273 0 .494.221.494.492v81.649a.493.493 0 0 1-.494.492zm0-82.141H4.424v81.649H65.87V10.623zM35.049 6.391a.69.69 0 1 1 0-1.377.69.69 0 0 1 .691.689.69.69 0 0 1-.691.688zm0-1.082a.394.394 0 1 0-.001.789.394.394 0 0 0 .001-.789zm.014 90.025a2.545 2.545 0 0 1 2.55 2.541 2.546 2.546 0 0 1-2.55 2.54 2.546 2.546 0 0 1-2.55-2.54 2.545 2.545 0 0 1 2.55-2.541zm0 4.688a2.154 2.154 0 0 0 2.155-2.147 2.153 2.153 0 0 0-2.155-2.147 2.153 2.153 0 0 0-2.156 2.147c0 1.183.967 2.147 2.156 2.147zm-.596-3.129h1.164c.224 0 .406.18.406.403v1.16a.405.405 0 0 1-.406.405h-1.164a.405.405 0 0 1-.405-.405v-1.16c0-.223.181-.403.405-.403zm-.006 1.563c0 .004.003.006.006.006h1.164c.004 0 .006-.002.006-.006v-1.16c0-.003-.002-.006-.006-.006h-1.164a.006.006 0 0 0-.006.006v1.16z"/></svg>