<svg id="phone" xmlns="http://www.w3.org/2000/svg" width="17" height="27"><path data-name="13-tool - cell phone iphone mobile" d="M13.6 27H3.4A3.387 3.387 0 0 1 0 23.62V3.37A3.384 3.384 0 0 1 3.4 0h10.2A3.384 3.384 0 0 1 17 3.37v20.25A3.387 3.387 0 0 1 13.6 27zm1.7-23.63a1.688 1.688 0 0 0-1.7-1.68H3.4a1.688 1.688 0 0 0-1.7 1.68v1.69h13.6V3.37zm0 3.38H1.7v10.12h13.6V6.75zM1.7 18.56v5.06a1.69 1.69 0 0 0 1.7 1.69h10.2a1.69 1.69 0 0 0 1.7-1.69v-5.06H1.7zm6.8 5.06a1.685 1.685 0 1 1 1.7-1.68 1.688 1.688 0 0 1-1.7 1.68z" fill="#fff" fill-rule="evenodd"/></svg>