<svg id="plane" xmlns="http://www.w3.org/2000/svg" width="27.031" height="27"><path data-name="30-communication - email send contact" d="M26.988 1.1L14.449 26.35a.122.122 0 0 1-.021.04.8.8 0 0 1-.58.58.827.827 0 0 1-.442-.02h-.012c-.01 0-.017-.01-.027-.01a1.036 1.036 0 0 1-.24-.12.346.346 0 0 1-.1-.09.793.793 0 0 1-.122-.13 1.007 1.007 0 0 1-.069-.14.56.56 0 0 1-.06-.12l-4.459-8.46-7.664-3.65c-.043-.02-.075-.04-.115-.06A.746.746 0 0 1 .4 14.1a1.7 1.7 0 0 1-.138-.12c-.031-.04-.062-.07-.088-.1a1.11 1.11 0 0 1-.118-.24c0-.01-.011-.02-.013-.03s0-.01 0-.01a.84.84 0 0 1-.02-.44.811.811 0 0 1 .58-.58.075.075 0 0 1 .041-.02L25.916.02a.829.829 0 0 1 .729.17.491.491 0 0 1 .1.08.56.56 0 0 1 .085.1.825.825 0 0 1 .158.73zm-24.2 12.28l5.973 2.84L21.635 4.03zm7.174 4.04l3.621 6.87 9.656-19.45z" fill="#000" fill-rule="evenodd"/></svg>