<svg id="timer" xmlns="http://www.w3.org/2000/svg" width="23" height="28"><path data-name="26-time - stopwatch timer" d="M11.5 28A11.376 11.376 0 1 1 23 16.62 11.443 11.443 0 0 1 11.5 28zm0-21a9.621 9.621 0 1 0 9.731 9.62A9.671 9.671 0 0 0 11.5 7zm7.075 10.5h-1.769a.875.875 0 1 1 0-1.75h1.769a.875.875 0 1 1-.001 1.75zm-7.075 7a.886.886 0 0 1-.884-.88v-1.75a.885.885 0 0 1 1.769 0v1.75a.886.886 0 0 1-.885.88zm0-12.25a.886.886 0 0 1-.884-.88V9.62a.885.885 0 0 1 1.769 0v1.75a.886.886 0 0 1-.885.88zM6.191 17.5h-1.77a.875.875 0 1 1 0-1.75h1.77a.875.875 0 1 1-.001 1.75zm8.848-15.76h-2.654v1.75a.885.885 0 0 1-1.769 0V1.74H7.962a.875.875 0 1 1 0-1.75h7.077a.875.875 0 1 1-.001 1.75z" fill="#000" fill-rule="evenodd"/></svg>