<svg id="twitter" xmlns="http://www.w3.org/2000/svg" width="21" height="18"><path d="M20.43.3a8.853 8.853 0 0 1-2.74 1.1A4.128 4.128 0 0 0 14.54 0a4.4 4.4 0 0 0-4.31 4.5 5.861 5.861 0 0 0 .11 1.1A11.951 11.951 0 0 1 1.46.8a4.857 4.857 0 0 0-.59 2.3 4.585 4.585 0 0 0 1.92 3.8 3.4 3.4 0 0 1-1.95-.6v.1a4.411 4.411 0 0 0 3.46 4.4 4.326 4.326 0 0 1-1.14.2 2.2 2.2 0 0 1-.81-.1 4.484 4.484 0 0 0 4.03 3.2A8.464 8.464 0 0 1 1.02 16H-.01a12.477 12.477 0 0 0 6.61 2c7.93 0 12.27-6.9 12.27-12.9 0-.2-.01-.4-.01-.6a10.641 10.641 0 0 0 2.15-2.4 7.127 7.127 0 0 1-2.48.7 4.211 4.211 0 0 0 1.9-2.5z" fill="#fff" fill-rule="evenodd"/></svg>