<svg id="vote" xmlns="http://www.w3.org/2000/svg" width="31" height="27"><path data-name="37-communication - task vote choice select" d="M30.719 7.43L19.107 18.01c-.03.03-.077.02-.11.05a.955.955 0 0 1-.547.22.079.079 0 0 1-.046.01 1 1 0 0 1-.759-.28l-5.731-4.74a1.009 1.009 0 0 1 1.433-1.42l5.055 4.17 10.935-9.97a.977.977 0 1 1 1.382 1.38zm-9.39-5.51H3.878a1.938 1.938 0 0 0-1.939 1.93v19.29a1.938 1.938 0 0 0 1.939 1.93h17.451a1.938 1.938 0 0 0 1.939-1.93v-3.86h1.939v3.86A3.87 3.87 0 0 1 21.329 27H3.878a3.871 3.871 0 0 1-3.879-3.86V3.85A3.862 3.862 0 0 1 3.878 0h17.451a3.862 3.862 0 0 1 3.878 3.85h-1.939a1.938 1.938 0 0 0-1.939-1.93z" fill="#000" fill-rule="evenodd"/></svg>